<svg width="10" height="10" viewBox="0 0 10 10" fill="none" xmlns="http://www.w3.org/2000/svg">
<path fill-rule="evenodd" clip-rule="evenodd" d="M4.14777 5.05886L0.663098 4.38214C0.175191 4.28738 -0.116472 3.78335 0.0444964 3.31312C0.205467 2.84289 0.744833 2.62333 1.18845 2.84747L4.43774 4.48911L2.40738 1.4801C2.12938 1.0681 2.27954 0.505463 2.72587 0.286776C3.1722 0.0680985 3.70883 0.29424 3.86403 0.76641L4.97831 4.15637L5.65671 0.663098C5.75145 0.175195 6.25549 -0.116475 6.72572 0.0444979C7.19595 0.205462 7.4155 0.744833 7.19137 1.18844L5.57877 4.38024L8.56322 2.36645C8.97522 2.08845 9.53786 2.23862 9.75655 2.68494C9.97522 3.13127 9.74908 3.66791 9.27692 3.82311L5.81803 4.96004L9.3369 5.6434C9.8248 5.73816 10.1165 6.24219 9.9555 6.71242C9.79453 7.18265 9.25516 7.40221 8.81155 7.17808L5.68866 5.60029L7.64883 8.50527C7.92683 8.91727 7.77667 9.47991 7.33034 9.69859C6.88402 9.91727 6.34738 9.69113 6.19218 9.21896L5.07713 5.82664L4.39543 9.3369C4.30068 9.82481 3.79665 10.1165 3.32642 9.9555C2.85619 9.79453 2.63664 9.25517 2.86076 8.81155L4.46759 5.63118L1.53806 7.60791C1.12606 7.88591 0.563422 7.73574 0.34474 7.28942C0.12606 6.84309 0.352204 6.30646 0.824369 6.15125L4.14777 5.05886Z" fill="#FF6A3A"/>
</svg>
