<svg width="15" height="15" viewBox="0 0 15 15" fill="none" xmlns="http://www.w3.org/2000/svg">
<path fill-rule="evenodd" clip-rule="evenodd" d="M1.60494 3.20988C2.49136 3.20988 3.20988 2.49132 3.20988 1.60494C3.20988 0.718556 2.49136 0 1.60494 0C0.718519 0 0 0.718556 0 1.60494C0 2.49132 0.718519 3.20988 1.60494 3.20988ZM12.8395 3.20988C13.7259 3.20988 14.4444 2.49132 14.4444 1.60494C14.4444 0.718556 13.7259 0 12.8395 0C11.9531 0 11.2346 0.718556 11.2346 1.60494C11.2346 2.49132 11.9531 3.20988 12.8395 3.20988ZM1.60494 14.4444C2.49136 14.4444 3.20988 13.7259 3.20988 12.8395C3.20988 11.9531 2.49136 11.2346 1.60494 11.2346C0.718519 11.2346 0 11.9531 0 12.8395C0 13.7259 0.718519 14.4444 1.60494 14.4444ZM12.8395 14.4444C13.7259 14.4444 14.4444 13.7259 14.4444 12.8395C14.4444 11.9531 13.7259 11.2346 12.8395 11.2346C11.9531 11.2346 11.2346 11.9531 11.2346 12.8395C11.2346 13.7259 11.9531 14.4444 12.8395 14.4444ZM7.22222 8.82716C8.10864 8.82716 8.82716 8.10861 8.82716 7.22222C8.82716 6.33584 8.10864 5.61728 7.22222 5.61728C6.3358 5.61728 5.61728 6.33584 5.61728 7.22222C5.61728 8.10861 6.3358 8.82716 7.22222 8.82716Z" fill="white"/>
</svg>
