<svg width="16" height="15" viewBox="0 0 16 15" fill="none" xmlns="http://www.w3.org/2000/svg">
<path fill-rule="evenodd" clip-rule="evenodd" d="M2.38228 3.20988C3.2687 3.20988 3.98722 2.49132 3.98722 1.60494C3.98722 0.718556 3.2687 0 2.38228 0C1.49586 0 0.777344 0.718556 0.777344 1.60494C0.777344 2.49132 1.49586 3.20988 2.38228 3.20988ZM13.6169 3.20988C14.5033 3.20988 15.2218 2.49132 15.2218 1.60494C15.2218 0.718556 14.5033 0 13.6169 0C12.7304 0 12.0119 0.718556 12.0119 1.60494C12.0119 2.49132 12.7304 3.20988 13.6169 3.20988ZM2.38228 14.4444C3.2687 14.4444 3.98722 13.7259 3.98722 12.8395C3.98722 11.9531 3.2687 11.2346 2.38228 11.2346C1.49586 11.2346 0.777344 11.9531 0.777344 12.8395C0.777344 13.7259 1.49586 14.4444 2.38228 14.4444ZM13.6169 14.4444C14.5033 14.4444 15.2218 13.7259 15.2218 12.8395C15.2218 11.9531 14.5033 11.2346 13.6169 11.2346C12.7304 11.2346 12.0119 11.9531 12.0119 12.8395C12.0119 13.7259 12.7304 14.4444 13.6169 14.4444ZM7.99957 8.82716C8.88599 8.82716 9.6045 8.10861 9.6045 7.22222C9.6045 6.33584 8.88599 5.61728 7.99957 5.61728C7.11315 5.61728 6.39463 6.33584 6.39463 7.22222C6.39463 8.10861 7.11315 8.82716 7.99957 8.82716Z" fill="#111111"/>
</svg>
